<mxfile host="Electron" modified="2024-11-17T20:25:11.551Z" agent="Mozilla/5.0 (Windows NT 10.0; Win64; x64) AppleWebKit/537.36 (KHTML, like Gecko) draw.io/24.6.4 Chrome/124.0.6367.207 Electron/30.0.6 Safari/537.36" etag="fCxolqBV92R1rahamZc_" version="24.6.4" type="device">
  <diagram id="C5RBs43oDa-KdzZeNtuy" name="Page-1">
    <mxGraphModel dx="6904" dy="4314" grid="1" gridSize="10" guides="1" tooltips="1" connect="1" arrows="1" fold="1" page="1" pageScale="1" pageWidth="827" pageHeight="1169" math="0" shadow="0">
      <root>
        <mxCell id="WIyWlLk6GJQsqaUBKTNV-0" />
        <mxCell id="WIyWlLk6GJQsqaUBKTNV-1" parent="WIyWlLk6GJQsqaUBKTNV-0" />
        <mxCell id="zkfFHV4jXpPFQw0GAbJ--0" value="User" style="swimlane;fontStyle=0;align=center;verticalAlign=top;childLayout=stackLayout;horizontal=1;startSize=26;horizontalStack=0;resizeParent=1;resizeLast=0;collapsible=1;marginBottom=0;rounded=0;shadow=0;strokeWidth=1;" parent="WIyWlLk6GJQsqaUBKTNV-1" vertex="1">
          <mxGeometry x="190" y="36" width="239" height="544" as="geometry">
            <mxRectangle x="230" y="140" width="160" height="26" as="alternateBounds" />
          </mxGeometry>
        </mxCell>
        <mxCell id="zkfFHV4jXpPFQw0GAbJ--1" value="Id : int" style="text;align=left;verticalAlign=top;spacingLeft=4;spacingRight=4;overflow=hidden;rotatable=0;points=[[0,0.5],[1,0.5]];portConstraint=eastwest;" parent="zkfFHV4jXpPFQw0GAbJ--0" vertex="1">
          <mxGeometry y="26" width="239" height="26" as="geometry" />
        </mxCell>
        <mxCell id="zkfFHV4jXpPFQw0GAbJ--2" value="Username : string" style="text;align=left;verticalAlign=top;spacingLeft=4;spacingRight=4;overflow=hidden;rotatable=0;points=[[0,0.5],[1,0.5]];portConstraint=eastwest;rounded=0;shadow=0;html=0;" parent="zkfFHV4jXpPFQw0GAbJ--0" vertex="1">
          <mxGeometry y="52" width="239" height="26" as="geometry" />
        </mxCell>
        <mxCell id="oME-vHjYG33nbW_-eXSs-125" value="firstName: string" style="text;align=left;verticalAlign=top;spacingLeft=4;spacingRight=4;overflow=hidden;rotatable=0;points=[[0,0.5],[1,0.5]];portConstraint=eastwest;rounded=0;shadow=0;html=0;" vertex="1" parent="zkfFHV4jXpPFQw0GAbJ--0">
          <mxGeometry y="78" width="239" height="26" as="geometry" />
        </mxCell>
        <mxCell id="oME-vHjYG33nbW_-eXSs-124" value="lastName: string" style="text;align=left;verticalAlign=top;spacingLeft=4;spacingRight=4;overflow=hidden;rotatable=0;points=[[0,0.5],[1,0.5]];portConstraint=eastwest;rounded=0;shadow=0;html=0;" vertex="1" parent="zkfFHV4jXpPFQw0GAbJ--0">
          <mxGeometry y="104" width="239" height="26" as="geometry" />
        </mxCell>
        <mxCell id="oME-vHjYG33nbW_-eXSs-126" value="dateOfBirth" style="text;align=left;verticalAlign=top;spacingLeft=4;spacingRight=4;overflow=hidden;rotatable=0;points=[[0,0.5],[1,0.5]];portConstraint=eastwest;rounded=0;shadow=0;html=0;" vertex="1" parent="zkfFHV4jXpPFQw0GAbJ--0">
          <mxGeometry y="130" width="239" height="26" as="geometry" />
        </mxCell>
        <mxCell id="zkfFHV4jXpPFQw0GAbJ--3" value="Email : string " style="text;align=left;verticalAlign=top;spacingLeft=4;spacingRight=4;overflow=hidden;rotatable=0;points=[[0,0.5],[1,0.5]];portConstraint=eastwest;rounded=0;shadow=0;html=0;" parent="zkfFHV4jXpPFQw0GAbJ--0" vertex="1">
          <mxGeometry y="156" width="239" height="26" as="geometry" />
        </mxCell>
        <mxCell id="oME-vHjYG33nbW_-eXSs-2" value="password : string " style="text;align=left;verticalAlign=top;spacingLeft=4;spacingRight=4;overflow=hidden;rotatable=0;points=[[0,0.5],[1,0.5]];portConstraint=eastwest;rounded=0;shadow=0;html=0;" vertex="1" parent="zkfFHV4jXpPFQw0GAbJ--0">
          <mxGeometry y="182" width="239" height="26" as="geometry" />
        </mxCell>
        <mxCell id="oME-vHjYG33nbW_-eXSs-1" value="ProfilePicture : string " style="text;align=left;verticalAlign=top;spacingLeft=4;spacingRight=4;overflow=hidden;rotatable=0;points=[[0,0.5],[1,0.5]];portConstraint=eastwest;rounded=0;shadow=0;html=0;" vertex="1" parent="zkfFHV4jXpPFQw0GAbJ--0">
          <mxGeometry y="208" width="239" height="26" as="geometry" />
        </mxCell>
        <mxCell id="oME-vHjYG33nbW_-eXSs-0" value="Bio : string " style="text;align=left;verticalAlign=top;spacingLeft=4;spacingRight=4;overflow=hidden;rotatable=0;points=[[0,0.5],[1,0.5]];portConstraint=eastwest;rounded=0;shadow=0;html=0;" vertex="1" parent="zkfFHV4jXpPFQw0GAbJ--0">
          <mxGeometry y="234" width="239" height="26" as="geometry" />
        </mxCell>
        <mxCell id="oME-vHjYG33nbW_-eXSs-128" value="accountLocked: bool" style="text;align=left;verticalAlign=top;spacingLeft=4;spacingRight=4;overflow=hidden;rotatable=0;points=[[0,0.5],[1,0.5]];portConstraint=eastwest;rounded=0;shadow=0;html=0;" vertex="1" parent="zkfFHV4jXpPFQw0GAbJ--0">
          <mxGeometry y="260" width="239" height="26" as="geometry" />
        </mxCell>
        <mxCell id="oME-vHjYG33nbW_-eXSs-127" value="enabled: bool" style="text;align=left;verticalAlign=top;spacingLeft=4;spacingRight=4;overflow=hidden;rotatable=0;points=[[0,0.5],[1,0.5]];portConstraint=eastwest;rounded=0;shadow=0;html=0;" vertex="1" parent="zkfFHV4jXpPFQw0GAbJ--0">
          <mxGeometry y="286" width="239" height="26" as="geometry" />
        </mxCell>
        <mxCell id="oME-vHjYG33nbW_-eXSs-82" value="SocialLinks: Dictionary(stirng,string)" style="text;align=left;verticalAlign=top;spacingLeft=4;spacingRight=4;overflow=hidden;rotatable=0;points=[[0,0.5],[1,0.5]];portConstraint=eastwest;rounded=0;shadow=0;html=0;" vertex="1" parent="zkfFHV4jXpPFQw0GAbJ--0">
          <mxGeometry y="312" width="239" height="26" as="geometry" />
        </mxCell>
        <mxCell id="oME-vHjYG33nbW_-eXSs-99" value="savedPost: List&lt;string&gt;" style="text;align=left;verticalAlign=top;spacingLeft=4;spacingRight=4;overflow=hidden;rotatable=0;points=[[0,0.5],[1,0.5]];portConstraint=eastwest;rounded=0;shadow=0;html=0;" vertex="1" parent="zkfFHV4jXpPFQw0GAbJ--0">
          <mxGeometry y="338" width="239" height="26" as="geometry" />
        </mxCell>
        <mxCell id="zkfFHV4jXpPFQw0GAbJ--4" value="" style="line;html=1;strokeWidth=1;align=left;verticalAlign=middle;spacingTop=-1;spacingLeft=3;spacingRight=3;rotatable=0;labelPosition=right;points=[];portConstraint=eastwest;" parent="zkfFHV4jXpPFQw0GAbJ--0" vertex="1">
          <mxGeometry y="364" width="239" height="8" as="geometry" />
        </mxCell>
        <mxCell id="zkfFHV4jXpPFQw0GAbJ--5" value="Follow(user: User)" style="text;align=left;verticalAlign=top;spacingLeft=4;spacingRight=4;overflow=hidden;rotatable=0;points=[[0,0.5],[1,0.5]];portConstraint=eastwest;" parent="zkfFHV4jXpPFQw0GAbJ--0" vertex="1">
          <mxGeometry y="372" width="239" height="26" as="geometry" />
        </mxCell>
        <mxCell id="oME-vHjYG33nbW_-eXSs-6" value="Unfollow(user: User)" style="text;align=left;verticalAlign=top;spacingLeft=4;spacingRight=4;overflow=hidden;rotatable=0;points=[[0,0.5],[1,0.5]];portConstraint=eastwest;" vertex="1" parent="zkfFHV4jXpPFQw0GAbJ--0">
          <mxGeometry y="398" width="239" height="26" as="geometry" />
        </mxCell>
        <mxCell id="oME-vHjYG33nbW_-eXSs-5" value="SendMessage(to: User, message: string)" style="text;align=left;verticalAlign=top;spacingLeft=4;spacingRight=4;overflow=hidden;rotatable=0;points=[[0,0.5],[1,0.5]];portConstraint=eastwest;" vertex="1" parent="zkfFHV4jXpPFQw0GAbJ--0">
          <mxGeometry y="424" width="239" height="26" as="geometry" />
        </mxCell>
        <mxCell id="oME-vHjYG33nbW_-eXSs-4" value="EditProfile(details: Dictionary)" style="text;align=left;verticalAlign=top;spacingLeft=4;spacingRight=4;overflow=hidden;rotatable=0;points=[[0,0.5],[1,0.5]];portConstraint=eastwest;" vertex="1" parent="zkfFHV4jXpPFQw0GAbJ--0">
          <mxGeometry y="450" width="239" height="26" as="geometry" />
        </mxCell>
        <mxCell id="oME-vHjYG33nbW_-eXSs-3" value="SavePost(postid :stirng)" style="text;align=left;verticalAlign=top;spacingLeft=4;spacingRight=4;overflow=hidden;rotatable=0;points=[[0,0.5],[1,0.5]];portConstraint=eastwest;" vertex="1" parent="zkfFHV4jXpPFQw0GAbJ--0">
          <mxGeometry y="476" width="239" height="26" as="geometry" />
        </mxCell>
        <mxCell id="oME-vHjYG33nbW_-eXSs-7" value="Post" style="swimlane;fontStyle=0;align=center;verticalAlign=top;childLayout=stackLayout;horizontal=1;startSize=26;horizontalStack=0;resizeParent=1;resizeLast=0;collapsible=1;marginBottom=0;rounded=0;shadow=0;strokeWidth=1;" vertex="1" parent="WIyWlLk6GJQsqaUBKTNV-1">
          <mxGeometry x="-710" y="60" width="239" height="310" as="geometry">
            <mxRectangle x="230" y="140" width="160" height="26" as="alternateBounds" />
          </mxGeometry>
        </mxCell>
        <mxCell id="oME-vHjYG33nbW_-eXSs-8" value="Id : int" style="text;align=left;verticalAlign=top;spacingLeft=4;spacingRight=4;overflow=hidden;rotatable=0;points=[[0,0.5],[1,0.5]];portConstraint=eastwest;" vertex="1" parent="oME-vHjYG33nbW_-eXSs-7">
          <mxGeometry y="26" width="239" height="26" as="geometry" />
        </mxCell>
        <mxCell id="oME-vHjYG33nbW_-eXSs-10" value="Content : string" style="text;align=left;verticalAlign=top;spacingLeft=4;spacingRight=4;overflow=hidden;rotatable=0;points=[[0,0.5],[1,0.5]];portConstraint=eastwest;rounded=0;shadow=0;html=0;" vertex="1" parent="oME-vHjYG33nbW_-eXSs-7">
          <mxGeometry y="52" width="239" height="26" as="geometry" />
        </mxCell>
        <mxCell id="oME-vHjYG33nbW_-eXSs-84" value="attachmentUrl: string" style="text;align=left;verticalAlign=top;spacingLeft=4;spacingRight=4;overflow=hidden;rotatable=0;points=[[0,0.5],[1,0.5]];portConstraint=eastwest;rounded=0;shadow=0;html=0;" vertex="1" parent="oME-vHjYG33nbW_-eXSs-7">
          <mxGeometry y="78" width="239" height="26" as="geometry" />
        </mxCell>
        <mxCell id="oME-vHjYG33nbW_-eXSs-114" value="tags: List&lt;string&gt;" style="text;align=left;verticalAlign=top;spacingLeft=4;spacingRight=4;overflow=hidden;rotatable=0;points=[[0,0.5],[1,0.5]];portConstraint=eastwest;rounded=0;shadow=0;html=0;" vertex="1" parent="oME-vHjYG33nbW_-eXSs-7">
          <mxGeometry y="104" width="239" height="26" as="geometry" />
        </mxCell>
        <mxCell id="oME-vHjYG33nbW_-eXSs-12" value="Timestamp: DateTime" style="text;align=left;verticalAlign=top;spacingLeft=4;spacingRight=4;overflow=hidden;rotatable=0;points=[[0,0.5],[1,0.5]];portConstraint=eastwest;rounded=0;shadow=0;html=0;" vertex="1" parent="oME-vHjYG33nbW_-eXSs-7">
          <mxGeometry y="130" width="239" height="26" as="geometry" />
        </mxCell>
        <mxCell id="oME-vHjYG33nbW_-eXSs-14" value="" style="line;html=1;strokeWidth=1;align=left;verticalAlign=middle;spacingTop=-1;spacingLeft=3;spacingRight=3;rotatable=0;labelPosition=right;points=[];portConstraint=eastwest;" vertex="1" parent="oME-vHjYG33nbW_-eXSs-7">
          <mxGeometry y="156" width="239" height="8" as="geometry" />
        </mxCell>
        <mxCell id="oME-vHjYG33nbW_-eXSs-15" value="AddLike(user: User)" style="text;align=left;verticalAlign=top;spacingLeft=4;spacingRight=4;overflow=hidden;rotatable=0;points=[[0,0.5],[1,0.5]];portConstraint=eastwest;" vertex="1" parent="oME-vHjYG33nbW_-eXSs-7">
          <mxGeometry y="164" width="239" height="26" as="geometry" />
        </mxCell>
        <mxCell id="oME-vHjYG33nbW_-eXSs-95" value="RemoveLike(user: User)" style="text;align=left;verticalAlign=top;spacingLeft=4;spacingRight=4;overflow=hidden;rotatable=0;points=[[0,0.5],[1,0.5]];portConstraint=eastwest;" vertex="1" parent="oME-vHjYG33nbW_-eXSs-7">
          <mxGeometry y="190" width="239" height="26" as="geometry" />
        </mxCell>
        <mxCell id="oME-vHjYG33nbW_-eXSs-16" value="AddComment(comment: Comment)" style="text;align=left;verticalAlign=top;spacingLeft=4;spacingRight=4;overflow=hidden;rotatable=0;points=[[0,0.5],[1,0.5]];portConstraint=eastwest;" vertex="1" parent="oME-vHjYG33nbW_-eXSs-7">
          <mxGeometry y="216" width="239" height="26" as="geometry" />
        </mxCell>
        <mxCell id="oME-vHjYG33nbW_-eXSs-83" value="RemoveComment(comment: Comment)" style="text;align=left;verticalAlign=top;spacingLeft=4;spacingRight=4;overflow=hidden;rotatable=0;points=[[0,0.5],[1,0.5]];portConstraint=eastwest;" vertex="1" parent="oME-vHjYG33nbW_-eXSs-7">
          <mxGeometry y="242" width="239" height="26" as="geometry" />
        </mxCell>
        <mxCell id="oME-vHjYG33nbW_-eXSs-19" value="Save()" style="text;align=left;verticalAlign=top;spacingLeft=4;spacingRight=4;overflow=hidden;rotatable=0;points=[[0,0.5],[1,0.5]];portConstraint=eastwest;" vertex="1" parent="oME-vHjYG33nbW_-eXSs-7">
          <mxGeometry y="268" width="239" height="26" as="geometry" />
        </mxCell>
        <mxCell id="oME-vHjYG33nbW_-eXSs-20" value="Comment" style="swimlane;fontStyle=0;align=center;verticalAlign=top;childLayout=stackLayout;horizontal=1;startSize=26;horizontalStack=0;resizeParent=1;resizeLast=0;collapsible=1;marginBottom=0;rounded=0;shadow=0;strokeWidth=1;" vertex="1" parent="WIyWlLk6GJQsqaUBKTNV-1">
          <mxGeometry x="30" y="-370" width="239" height="180" as="geometry">
            <mxRectangle x="230" y="140" width="160" height="26" as="alternateBounds" />
          </mxGeometry>
        </mxCell>
        <mxCell id="oME-vHjYG33nbW_-eXSs-21" value="Id : int" style="text;align=left;verticalAlign=top;spacingLeft=4;spacingRight=4;overflow=hidden;rotatable=0;points=[[0,0.5],[1,0.5]];portConstraint=eastwest;" vertex="1" parent="oME-vHjYG33nbW_-eXSs-20">
          <mxGeometry y="26" width="239" height="26" as="geometry" />
        </mxCell>
        <mxCell id="oME-vHjYG33nbW_-eXSs-23" value="Content : string" style="text;align=left;verticalAlign=top;spacingLeft=4;spacingRight=4;overflow=hidden;rotatable=0;points=[[0,0.5],[1,0.5]];portConstraint=eastwest;rounded=0;shadow=0;html=0;" vertex="1" parent="oME-vHjYG33nbW_-eXSs-20">
          <mxGeometry y="52" width="239" height="26" as="geometry" />
        </mxCell>
        <mxCell id="oME-vHjYG33nbW_-eXSs-96" value="replies: List&lt;comment&gt;" style="text;align=left;verticalAlign=top;spacingLeft=4;spacingRight=4;overflow=hidden;rotatable=0;points=[[0,0.5],[1,0.5]];portConstraint=eastwest;rounded=0;shadow=0;html=0;" vertex="1" parent="oME-vHjYG33nbW_-eXSs-20">
          <mxGeometry y="78" width="239" height="26" as="geometry" />
        </mxCell>
        <mxCell id="oME-vHjYG33nbW_-eXSs-25" value="Timestamp: DateTime" style="text;align=left;verticalAlign=top;spacingLeft=4;spacingRight=4;overflow=hidden;rotatable=0;points=[[0,0.5],[1,0.5]];portConstraint=eastwest;rounded=0;shadow=0;html=0;" vertex="1" parent="oME-vHjYG33nbW_-eXSs-20">
          <mxGeometry y="104" width="239" height="26" as="geometry" />
        </mxCell>
        <mxCell id="oME-vHjYG33nbW_-eXSs-26" value="" style="line;html=1;strokeWidth=1;align=left;verticalAlign=middle;spacingTop=-1;spacingLeft=3;spacingRight=3;rotatable=0;labelPosition=right;points=[];portConstraint=eastwest;" vertex="1" parent="oME-vHjYG33nbW_-eXSs-20">
          <mxGeometry y="130" width="239" height="8" as="geometry" />
        </mxCell>
        <mxCell id="oME-vHjYG33nbW_-eXSs-98" value="AddReply(reply: comment)" style="text;align=left;verticalAlign=top;spacingLeft=4;spacingRight=4;overflow=hidden;rotatable=0;points=[[0,0.5],[1,0.5]];portConstraint=eastwest;rounded=0;shadow=0;html=0;" vertex="1" parent="oME-vHjYG33nbW_-eXSs-20">
          <mxGeometry y="138" width="239" height="26" as="geometry" />
        </mxCell>
        <mxCell id="oME-vHjYG33nbW_-eXSs-30" value="Like" style="swimlane;fontStyle=0;align=center;verticalAlign=top;childLayout=stackLayout;horizontal=1;startSize=26;horizontalStack=0;resizeParent=1;resizeLast=0;collapsible=1;marginBottom=0;rounded=0;shadow=0;strokeWidth=1;" vertex="1" parent="WIyWlLk6GJQsqaUBKTNV-1">
          <mxGeometry x="-460" y="-240" width="239" height="110" as="geometry">
            <mxRectangle x="230" y="140" width="160" height="26" as="alternateBounds" />
          </mxGeometry>
        </mxCell>
        <mxCell id="oME-vHjYG33nbW_-eXSs-31" value="Id : int" style="text;align=left;verticalAlign=top;spacingLeft=4;spacingRight=4;overflow=hidden;rotatable=0;points=[[0,0.5],[1,0.5]];portConstraint=eastwest;" vertex="1" parent="oME-vHjYG33nbW_-eXSs-30">
          <mxGeometry y="26" width="239" height="26" as="geometry" />
        </mxCell>
        <mxCell id="oME-vHjYG33nbW_-eXSs-35" value="" style="line;html=1;strokeWidth=1;align=left;verticalAlign=middle;spacingTop=-1;spacingLeft=3;spacingRight=3;rotatable=0;labelPosition=right;points=[];portConstraint=eastwest;" vertex="1" parent="oME-vHjYG33nbW_-eXSs-30">
          <mxGeometry y="52" width="239" height="8" as="geometry" />
        </mxCell>
        <mxCell id="oME-vHjYG33nbW_-eXSs-37" value="CahtRoom" style="swimlane;fontStyle=0;align=center;verticalAlign=top;childLayout=stackLayout;horizontal=1;startSize=26;horizontalStack=0;resizeParent=1;resizeLast=0;collapsible=1;marginBottom=0;rounded=0;shadow=0;strokeWidth=1;" vertex="1" parent="WIyWlLk6GJQsqaUBKTNV-1">
          <mxGeometry x="-590" y="600" width="260" height="294" as="geometry">
            <mxRectangle x="230" y="140" width="160" height="26" as="alternateBounds" />
          </mxGeometry>
        </mxCell>
        <mxCell id="oME-vHjYG33nbW_-eXSs-38" value="Id : int" style="text;align=left;verticalAlign=top;spacingLeft=4;spacingRight=4;overflow=hidden;rotatable=0;points=[[0,0.5],[1,0.5]];portConstraint=eastwest;" vertex="1" parent="oME-vHjYG33nbW_-eXSs-37">
          <mxGeometry y="26" width="260" height="26" as="geometry" />
        </mxCell>
        <mxCell id="oME-vHjYG33nbW_-eXSs-88" value="Type : string" style="text;align=left;verticalAlign=top;spacingLeft=4;spacingRight=4;overflow=hidden;rotatable=0;points=[[0,0.5],[1,0.5]];portConstraint=eastwest;rounded=0;shadow=0;html=0;" vertex="1" parent="oME-vHjYG33nbW_-eXSs-37">
          <mxGeometry y="52" width="260" height="26" as="geometry" />
        </mxCell>
        <mxCell id="oME-vHjYG33nbW_-eXSs-87" value="Timestamps: DataTime" style="text;align=left;verticalAlign=top;spacingLeft=4;spacingRight=4;overflow=hidden;rotatable=0;points=[[0,0.5],[1,0.5]];portConstraint=eastwest;rounded=0;shadow=0;html=0;" vertex="1" parent="oME-vHjYG33nbW_-eXSs-37">
          <mxGeometry y="78" width="260" height="26" as="geometry" />
        </mxCell>
        <mxCell id="oME-vHjYG33nbW_-eXSs-43" value="" style="line;html=1;strokeWidth=1;align=left;verticalAlign=middle;spacingTop=-1;spacingLeft=3;spacingRight=3;rotatable=0;labelPosition=right;points=[];portConstraint=eastwest;" vertex="1" parent="oME-vHjYG33nbW_-eXSs-37">
          <mxGeometry y="104" width="260" height="8" as="geometry" />
        </mxCell>
        <mxCell id="oME-vHjYG33nbW_-eXSs-44" value="SendMessage(from: User, content; Message)" style="text;align=left;verticalAlign=top;spacingLeft=4;spacingRight=4;overflow=hidden;rotatable=0;points=[[0,0.5],[1,0.5]];portConstraint=eastwest;" vertex="1" parent="oME-vHjYG33nbW_-eXSs-37">
          <mxGeometry y="112" width="260" height="26" as="geometry" />
        </mxCell>
        <mxCell id="oME-vHjYG33nbW_-eXSs-45" value="ReceiveMessage(message: Message)" style="text;align=left;verticalAlign=top;spacingLeft=4;spacingRight=4;overflow=hidden;rotatable=0;points=[[0,0.5],[1,0.5]];portConstraint=eastwest;" vertex="1" parent="oME-vHjYG33nbW_-eXSs-37">
          <mxGeometry y="138" width="260" height="26" as="geometry" />
        </mxCell>
        <mxCell id="oME-vHjYG33nbW_-eXSs-89" value="RemoveMessage(message: Message)" style="text;align=left;verticalAlign=top;spacingLeft=4;spacingRight=4;overflow=hidden;rotatable=0;points=[[0,0.5],[1,0.5]];portConstraint=eastwest;" vertex="1" parent="oME-vHjYG33nbW_-eXSs-37">
          <mxGeometry y="164" width="260" height="26" as="geometry" />
        </mxCell>
        <mxCell id="oME-vHjYG33nbW_-eXSs-90" value="AddParticipants(user: User)" style="text;align=left;verticalAlign=top;spacingLeft=4;spacingRight=4;overflow=hidden;rotatable=0;points=[[0,0.5],[1,0.5]];portConstraint=eastwest;" vertex="1" parent="oME-vHjYG33nbW_-eXSs-37">
          <mxGeometry y="190" width="260" height="26" as="geometry" />
        </mxCell>
        <mxCell id="oME-vHjYG33nbW_-eXSs-93" value="RemoveParticipant(user: User)" style="text;align=left;verticalAlign=top;spacingLeft=4;spacingRight=4;overflow=hidden;rotatable=0;points=[[0,0.5],[1,0.5]];portConstraint=eastwest;" vertex="1" parent="oME-vHjYG33nbW_-eXSs-37">
          <mxGeometry y="216" width="260" height="26" as="geometry" />
        </mxCell>
        <mxCell id="oME-vHjYG33nbW_-eXSs-47" value="Message" style="swimlane;fontStyle=0;align=center;verticalAlign=top;childLayout=stackLayout;horizontal=1;startSize=26;horizontalStack=0;resizeParent=1;resizeLast=0;collapsible=1;marginBottom=0;rounded=0;shadow=0;strokeWidth=1;" vertex="1" parent="WIyWlLk6GJQsqaUBKTNV-1">
          <mxGeometry x="-109.5" y="860" width="239" height="242" as="geometry">
            <mxRectangle x="230" y="140" width="160" height="26" as="alternateBounds" />
          </mxGeometry>
        </mxCell>
        <mxCell id="oME-vHjYG33nbW_-eXSs-48" value="Id : int" style="text;align=left;verticalAlign=top;spacingLeft=4;spacingRight=4;overflow=hidden;rotatable=0;points=[[0,0.5],[1,0.5]];portConstraint=eastwest;" vertex="1" parent="oME-vHjYG33nbW_-eXSs-47">
          <mxGeometry y="26" width="239" height="26" as="geometry" />
        </mxCell>
        <mxCell id="oME-vHjYG33nbW_-eXSs-85" value="ReciverID : string" style="text;align=left;verticalAlign=top;spacingLeft=4;spacingRight=4;overflow=hidden;rotatable=0;points=[[0,0.5],[1,0.5]];portConstraint=eastwest;rounded=0;shadow=0;html=0;" vertex="1" parent="oME-vHjYG33nbW_-eXSs-47">
          <mxGeometry y="52" width="239" height="26" as="geometry" />
        </mxCell>
        <mxCell id="oME-vHjYG33nbW_-eXSs-54" value="content : Object" style="text;align=left;verticalAlign=top;spacingLeft=4;spacingRight=4;overflow=hidden;rotatable=0;points=[[0,0.5],[1,0.5]];portConstraint=eastwest;" vertex="1" parent="oME-vHjYG33nbW_-eXSs-47">
          <mxGeometry y="78" width="239" height="26" as="geometry" />
        </mxCell>
        <mxCell id="oME-vHjYG33nbW_-eXSs-104" value="IsRead: bool" style="text;align=left;verticalAlign=top;spacingLeft=4;spacingRight=4;overflow=hidden;rotatable=0;points=[[0,0.5],[1,0.5]];portConstraint=eastwest;" vertex="1" parent="oME-vHjYG33nbW_-eXSs-47">
          <mxGeometry y="104" width="239" height="26" as="geometry" />
        </mxCell>
        <mxCell id="oME-vHjYG33nbW_-eXSs-53" value="sentAt: DataTime" style="text;align=left;verticalAlign=top;spacingLeft=4;spacingRight=4;overflow=hidden;rotatable=0;points=[[0,0.5],[1,0.5]];portConstraint=eastwest;" vertex="1" parent="oME-vHjYG33nbW_-eXSs-47">
          <mxGeometry y="130" width="239" height="26" as="geometry" />
        </mxCell>
        <mxCell id="oME-vHjYG33nbW_-eXSs-280" value="status: MessageStatus" style="text;align=left;verticalAlign=top;spacingLeft=4;spacingRight=4;overflow=hidden;rotatable=0;points=[[0,0.5],[1,0.5]];portConstraint=eastwest;" vertex="1" parent="oME-vHjYG33nbW_-eXSs-47">
          <mxGeometry y="156" width="239" height="26" as="geometry" />
        </mxCell>
        <mxCell id="oME-vHjYG33nbW_-eXSs-50" value="" style="line;html=1;strokeWidth=1;align=left;verticalAlign=middle;spacingTop=-1;spacingLeft=3;spacingRight=3;rotatable=0;labelPosition=right;points=[];portConstraint=eastwest;" vertex="1" parent="oME-vHjYG33nbW_-eXSs-47">
          <mxGeometry y="182" width="239" height="8" as="geometry" />
        </mxCell>
        <mxCell id="oME-vHjYG33nbW_-eXSs-105" value="MarkAsRead()" style="text;align=left;verticalAlign=top;spacingLeft=4;spacingRight=4;overflow=hidden;rotatable=0;points=[[0,0.5],[1,0.5]];portConstraint=eastwest;" vertex="1" parent="oME-vHjYG33nbW_-eXSs-47">
          <mxGeometry y="190" width="239" height="26" as="geometry" />
        </mxCell>
        <mxCell id="oME-vHjYG33nbW_-eXSs-55" value="Feed" style="swimlane;fontStyle=0;align=center;verticalAlign=top;childLayout=stackLayout;horizontal=1;startSize=26;horizontalStack=0;resizeParent=1;resizeLast=0;collapsible=1;marginBottom=0;rounded=0;shadow=0;strokeWidth=1;" vertex="1" parent="WIyWlLk6GJQsqaUBKTNV-1">
          <mxGeometry x="-80" y="374" width="239" height="120" as="geometry">
            <mxRectangle x="230" y="140" width="160" height="26" as="alternateBounds" />
          </mxGeometry>
        </mxCell>
        <mxCell id="oME-vHjYG33nbW_-eXSs-56" value="Id : int" style="text;align=left;verticalAlign=top;spacingLeft=4;spacingRight=4;overflow=hidden;rotatable=0;points=[[0,0.5],[1,0.5]];portConstraint=eastwest;" vertex="1" parent="oME-vHjYG33nbW_-eXSs-55">
          <mxGeometry y="26" width="239" height="26" as="geometry" />
        </mxCell>
        <mxCell id="oME-vHjYG33nbW_-eXSs-61" value="FeedPosts : List&lt;Post&gt;" style="text;align=left;verticalAlign=top;spacingLeft=4;spacingRight=4;overflow=hidden;rotatable=0;points=[[0,0.5],[1,0.5]];portConstraint=eastwest;rounded=0;shadow=0;html=0;" vertex="1" parent="oME-vHjYG33nbW_-eXSs-55">
          <mxGeometry y="52" width="239" height="26" as="geometry" />
        </mxCell>
        <mxCell id="oME-vHjYG33nbW_-eXSs-58" value="" style="line;html=1;strokeWidth=1;align=left;verticalAlign=middle;spacingTop=-1;spacingLeft=3;spacingRight=3;rotatable=0;labelPosition=right;points=[];portConstraint=eastwest;" vertex="1" parent="oME-vHjYG33nbW_-eXSs-55">
          <mxGeometry y="78" width="239" height="8" as="geometry" />
        </mxCell>
        <mxCell id="oME-vHjYG33nbW_-eXSs-59" value="GenerateFeed(user : User) : List&lt;Post&gt;" style="text;align=left;verticalAlign=top;spacingLeft=4;spacingRight=4;overflow=hidden;rotatable=0;points=[[0,0.5],[1,0.5]];portConstraint=eastwest;" vertex="1" parent="oME-vHjYG33nbW_-eXSs-55">
          <mxGeometry y="86" width="239" height="26" as="geometry" />
        </mxCell>
        <mxCell id="oME-vHjYG33nbW_-eXSs-62" value="Notification" style="swimlane;fontStyle=0;align=center;verticalAlign=top;childLayout=stackLayout;horizontal=1;startSize=26;horizontalStack=0;resizeParent=1;resizeLast=0;collapsible=1;marginBottom=0;rounded=0;shadow=0;strokeWidth=1;" vertex="1" parent="WIyWlLk6GJQsqaUBKTNV-1">
          <mxGeometry x="-360" y="210" width="260" height="272" as="geometry">
            <mxRectangle x="230" y="140" width="160" height="26" as="alternateBounds" />
          </mxGeometry>
        </mxCell>
        <mxCell id="oME-vHjYG33nbW_-eXSs-63" value="Id : int" style="text;align=left;verticalAlign=top;spacingLeft=4;spacingRight=4;overflow=hidden;rotatable=0;points=[[0,0.5],[1,0.5]];portConstraint=eastwest;" vertex="1" parent="oME-vHjYG33nbW_-eXSs-62">
          <mxGeometry y="26" width="260" height="26" as="geometry" />
        </mxCell>
        <mxCell id="oME-vHjYG33nbW_-eXSs-64" value="Recipient: User" style="text;align=left;verticalAlign=top;spacingLeft=4;spacingRight=4;overflow=hidden;rotatable=0;points=[[0,0.5],[1,0.5]];portConstraint=eastwest;rounded=0;shadow=0;html=0;" vertex="1" parent="oME-vHjYG33nbW_-eXSs-62">
          <mxGeometry y="52" width="260" height="26" as="geometry" />
        </mxCell>
        <mxCell id="oME-vHjYG33nbW_-eXSs-117" value="Type : string // (like ,, follow, comment)" style="text;align=left;verticalAlign=top;spacingLeft=4;spacingRight=4;overflow=hidden;rotatable=0;points=[[0,0.5],[1,0.5]];portConstraint=eastwest;rounded=0;shadow=0;html=0;" vertex="1" parent="oME-vHjYG33nbW_-eXSs-62">
          <mxGeometry y="78" width="260" height="26" as="geometry" />
        </mxCell>
        <mxCell id="oME-vHjYG33nbW_-eXSs-65" value="content: string" style="text;align=left;verticalAlign=top;spacingLeft=4;spacingRight=4;overflow=hidden;rotatable=0;points=[[0,0.5],[1,0.5]];portConstraint=eastwest;rounded=0;shadow=0;html=0;" vertex="1" parent="oME-vHjYG33nbW_-eXSs-62">
          <mxGeometry y="104" width="260" height="26" as="geometry" />
        </mxCell>
        <mxCell id="oME-vHjYG33nbW_-eXSs-68" value="IsRead: bool" style="text;align=left;verticalAlign=top;spacingLeft=4;spacingRight=4;overflow=hidden;rotatable=0;points=[[0,0.5],[1,0.5]];portConstraint=eastwest;rounded=0;shadow=0;html=0;" vertex="1" parent="oME-vHjYG33nbW_-eXSs-62">
          <mxGeometry y="130" width="260" height="26" as="geometry" />
        </mxCell>
        <mxCell id="oME-vHjYG33nbW_-eXSs-69" value="TimeStamp: DataTime" style="text;align=left;verticalAlign=top;spacingLeft=4;spacingRight=4;overflow=hidden;rotatable=0;points=[[0,0.5],[1,0.5]];portConstraint=eastwest;rounded=0;shadow=0;html=0;" vertex="1" parent="oME-vHjYG33nbW_-eXSs-62">
          <mxGeometry y="156" width="260" height="26" as="geometry" />
        </mxCell>
        <mxCell id="oME-vHjYG33nbW_-eXSs-66" value="" style="line;html=1;strokeWidth=1;align=left;verticalAlign=middle;spacingTop=-1;spacingLeft=3;spacingRight=3;rotatable=0;labelPosition=right;points=[];portConstraint=eastwest;" vertex="1" parent="oME-vHjYG33nbW_-eXSs-62">
          <mxGeometry y="182" width="260" height="8" as="geometry" />
        </mxCell>
        <mxCell id="oME-vHjYG33nbW_-eXSs-67" value="MarkAsRead()" style="text;align=left;verticalAlign=top;spacingLeft=4;spacingRight=4;overflow=hidden;rotatable=0;points=[[0,0.5],[1,0.5]];portConstraint=eastwest;" vertex="1" parent="oME-vHjYG33nbW_-eXSs-62">
          <mxGeometry y="190" width="260" height="26" as="geometry" />
        </mxCell>
        <mxCell id="oME-vHjYG33nbW_-eXSs-70" value="Search" style="swimlane;fontStyle=0;align=center;verticalAlign=top;childLayout=stackLayout;horizontal=1;startSize=26;horizontalStack=0;resizeParent=1;resizeLast=0;collapsible=1;marginBottom=0;rounded=0;shadow=0;strokeWidth=1;" vertex="1" parent="WIyWlLk6GJQsqaUBKTNV-1">
          <mxGeometry x="-1100" y="10" width="239" height="130" as="geometry">
            <mxRectangle x="230" y="140" width="160" height="26" as="alternateBounds" />
          </mxGeometry>
        </mxCell>
        <mxCell id="oME-vHjYG33nbW_-eXSs-79" style="text;align=left;verticalAlign=top;spacingLeft=4;spacingRight=4;overflow=hidden;rotatable=0;points=[[0,0.5],[1,0.5]];portConstraint=eastwest;" vertex="1" parent="oME-vHjYG33nbW_-eXSs-70">
          <mxGeometry y="26" width="239" height="26" as="geometry" />
        </mxCell>
        <mxCell id="oME-vHjYG33nbW_-eXSs-76" value="" style="line;html=1;strokeWidth=1;align=left;verticalAlign=middle;spacingTop=-1;spacingLeft=3;spacingRight=3;rotatable=0;labelPosition=right;points=[];portConstraint=eastwest;" vertex="1" parent="oME-vHjYG33nbW_-eXSs-70">
          <mxGeometry y="52" width="239" height="8" as="geometry" />
        </mxCell>
        <mxCell id="oME-vHjYG33nbW_-eXSs-77" value="SearchUsers(keyword: string): List&lt;User&gt;" style="text;align=left;verticalAlign=top;spacingLeft=4;spacingRight=4;overflow=hidden;rotatable=0;points=[[0,0.5],[1,0.5]];portConstraint=eastwest;" vertex="1" parent="oME-vHjYG33nbW_-eXSs-70">
          <mxGeometry y="60" width="239" height="26" as="geometry" />
        </mxCell>
        <mxCell id="oME-vHjYG33nbW_-eXSs-78" value="SearchPots(keyword: string): List&lt;Post&gt;" style="text;align=left;verticalAlign=top;spacingLeft=4;spacingRight=4;overflow=hidden;rotatable=0;points=[[0,0.5],[1,0.5]];portConstraint=eastwest;" vertex="1" parent="oME-vHjYG33nbW_-eXSs-70">
          <mxGeometry y="86" width="239" height="26" as="geometry" />
        </mxCell>
        <mxCell id="oME-vHjYG33nbW_-eXSs-106" value="Filter" style="swimlane;fontStyle=0;align=center;verticalAlign=top;childLayout=stackLayout;horizontal=1;startSize=26;horizontalStack=0;resizeParent=1;resizeLast=0;collapsible=1;marginBottom=0;rounded=0;shadow=0;strokeWidth=1;" vertex="1" parent="WIyWlLk6GJQsqaUBKTNV-1">
          <mxGeometry x="-1100" y="180" width="239" height="220" as="geometry">
            <mxRectangle x="230" y="140" width="160" height="26" as="alternateBounds" />
          </mxGeometry>
        </mxCell>
        <mxCell id="oME-vHjYG33nbW_-eXSs-107" style="text;align=left;verticalAlign=top;spacingLeft=4;spacingRight=4;overflow=hidden;rotatable=0;points=[[0,0.5],[1,0.5]];portConstraint=eastwest;" vertex="1" parent="oME-vHjYG33nbW_-eXSs-106">
          <mxGeometry y="26" width="239" height="26" as="geometry" />
        </mxCell>
        <mxCell id="oME-vHjYG33nbW_-eXSs-108" value="" style="line;html=1;strokeWidth=1;align=left;verticalAlign=middle;spacingTop=-1;spacingLeft=3;spacingRight=3;rotatable=0;labelPosition=right;points=[];portConstraint=eastwest;" vertex="1" parent="oME-vHjYG33nbW_-eXSs-106">
          <mxGeometry y="52" width="239" height="8" as="geometry" />
        </mxCell>
        <mxCell id="oME-vHjYG33nbW_-eXSs-110" value="FilterByData(List&lt;Posts&gt; posts, &#xa;startData DataTime, endata DataTime):&#xa;List&lt;Post&gt;" style="text;align=left;verticalAlign=top;spacingLeft=4;spacingRight=4;overflow=hidden;rotatable=0;points=[[0,0.5],[1,0.5]];portConstraint=eastwest;" vertex="1" parent="oME-vHjYG33nbW_-eXSs-106">
          <mxGeometry y="60" width="239" height="50" as="geometry" />
        </mxCell>
        <mxCell id="oME-vHjYG33nbW_-eXSs-111" value="FilterByHashTag(List&lt;Posts&gt; posts, &#xa;hashtag string):&#xa;List&lt;Post&gt;" style="text;align=left;verticalAlign=top;spacingLeft=4;spacingRight=4;overflow=hidden;rotatable=0;points=[[0,0.5],[1,0.5]];portConstraint=eastwest;" vertex="1" parent="oME-vHjYG33nbW_-eXSs-106">
          <mxGeometry y="110" width="239" height="50" as="geometry" />
        </mxCell>
        <mxCell id="oME-vHjYG33nbW_-eXSs-113" value="FilterByUser(List&lt;Posts&gt; posts, &#xa;userId : string):&#xa;List&lt;Post&gt;" style="text;align=left;verticalAlign=top;spacingLeft=4;spacingRight=4;overflow=hidden;rotatable=0;points=[[0,0.5],[1,0.5]];portConstraint=eastwest;" vertex="1" parent="oME-vHjYG33nbW_-eXSs-106">
          <mxGeometry y="160" width="239" height="60" as="geometry" />
        </mxCell>
        <mxCell id="oME-vHjYG33nbW_-eXSs-129" value="User_Role" style="swimlane;fontStyle=0;align=center;verticalAlign=top;childLayout=stackLayout;horizontal=1;startSize=26;horizontalStack=0;resizeParent=1;resizeLast=0;collapsible=1;marginBottom=0;rounded=0;shadow=0;strokeWidth=1;" vertex="1" parent="WIyWlLk6GJQsqaUBKTNV-1">
          <mxGeometry x="510" y="130" width="239" height="60" as="geometry">
            <mxRectangle x="230" y="140" width="160" height="26" as="alternateBounds" />
          </mxGeometry>
        </mxCell>
        <mxCell id="oME-vHjYG33nbW_-eXSs-132" value="" style="line;html=1;strokeWidth=1;align=left;verticalAlign=middle;spacingTop=-1;spacingLeft=3;spacingRight=3;rotatable=0;labelPosition=right;points=[];portConstraint=eastwest;" vertex="1" parent="oME-vHjYG33nbW_-eXSs-129">
          <mxGeometry y="26" width="239" height="8" as="geometry" />
        </mxCell>
        <mxCell id="oME-vHjYG33nbW_-eXSs-133" value="Role" style="swimlane;fontStyle=0;align=center;verticalAlign=top;childLayout=stackLayout;horizontal=1;startSize=26;horizontalStack=0;resizeParent=1;resizeLast=0;collapsible=1;marginBottom=0;rounded=0;shadow=0;strokeWidth=1;" vertex="1" parent="WIyWlLk6GJQsqaUBKTNV-1">
          <mxGeometry x="510" y="310" width="239" height="90" as="geometry">
            <mxRectangle x="230" y="140" width="160" height="26" as="alternateBounds" />
          </mxGeometry>
        </mxCell>
        <mxCell id="oME-vHjYG33nbW_-eXSs-137" value="Id: string" style="text;align=left;verticalAlign=top;spacingLeft=4;spacingRight=4;overflow=hidden;rotatable=0;points=[[0,0.5],[1,0.5]];portConstraint=eastwest;rounded=0;shadow=0;html=0;" vertex="1" parent="oME-vHjYG33nbW_-eXSs-133">
          <mxGeometry y="26" width="239" height="26" as="geometry" />
        </mxCell>
        <mxCell id="oME-vHjYG33nbW_-eXSs-138" value="name: string" style="text;align=left;verticalAlign=top;spacingLeft=4;spacingRight=4;overflow=hidden;rotatable=0;points=[[0,0.5],[1,0.5]];portConstraint=eastwest;rounded=0;shadow=0;html=0;" vertex="1" parent="oME-vHjYG33nbW_-eXSs-133">
          <mxGeometry y="52" width="239" height="26" as="geometry" />
        </mxCell>
        <mxCell id="oME-vHjYG33nbW_-eXSs-135" style="line;html=1;strokeWidth=1;align=left;verticalAlign=middle;spacingTop=-1;spacingLeft=3;spacingRight=3;rotatable=0;labelPosition=right;points=[];portConstraint=eastwest;" vertex="1" parent="oME-vHjYG33nbW_-eXSs-133">
          <mxGeometry y="78" width="239" height="8" as="geometry" />
        </mxCell>
        <mxCell id="oME-vHjYG33nbW_-eXSs-139" value="Token" style="swimlane;fontStyle=0;align=center;verticalAlign=top;childLayout=stackLayout;horizontal=1;startSize=26;horizontalStack=0;resizeParent=1;resizeLast=0;collapsible=1;marginBottom=0;rounded=0;shadow=0;strokeWidth=1;" vertex="1" parent="WIyWlLk6GJQsqaUBKTNV-1">
          <mxGeometry x="290" y="680" width="239" height="164" as="geometry">
            <mxRectangle x="230" y="140" width="160" height="26" as="alternateBounds" />
          </mxGeometry>
        </mxCell>
        <mxCell id="oME-vHjYG33nbW_-eXSs-140" value="Id: string" style="text;align=left;verticalAlign=top;spacingLeft=4;spacingRight=4;overflow=hidden;rotatable=0;points=[[0,0.5],[1,0.5]];portConstraint=eastwest;rounded=0;shadow=0;html=0;" vertex="1" parent="oME-vHjYG33nbW_-eXSs-139">
          <mxGeometry y="26" width="239" height="26" as="geometry" />
        </mxCell>
        <mxCell id="oME-vHjYG33nbW_-eXSs-141" value="token: string" style="text;align=left;verticalAlign=top;spacingLeft=4;spacingRight=4;overflow=hidden;rotatable=0;points=[[0,0.5],[1,0.5]];portConstraint=eastwest;rounded=0;shadow=0;html=0;" vertex="1" parent="oME-vHjYG33nbW_-eXSs-139">
          <mxGeometry y="52" width="239" height="26" as="geometry" />
        </mxCell>
        <mxCell id="oME-vHjYG33nbW_-eXSs-145" value="createdAt: DateTime" style="text;align=left;verticalAlign=top;spacingLeft=4;spacingRight=4;overflow=hidden;rotatable=0;points=[[0,0.5],[1,0.5]];portConstraint=eastwest;rounded=0;shadow=0;html=0;" vertex="1" parent="oME-vHjYG33nbW_-eXSs-139">
          <mxGeometry y="78" width="239" height="26" as="geometry" />
        </mxCell>
        <mxCell id="oME-vHjYG33nbW_-eXSs-144" value="expritesAt: DateTime" style="text;align=left;verticalAlign=top;spacingLeft=4;spacingRight=4;overflow=hidden;rotatable=0;points=[[0,0.5],[1,0.5]];portConstraint=eastwest;rounded=0;shadow=0;html=0;" vertex="1" parent="oME-vHjYG33nbW_-eXSs-139">
          <mxGeometry y="104" width="239" height="26" as="geometry" />
        </mxCell>
        <mxCell id="oME-vHjYG33nbW_-eXSs-143" value="validatedAt: DataTime" style="text;align=left;verticalAlign=top;spacingLeft=4;spacingRight=4;overflow=hidden;rotatable=0;points=[[0,0.5],[1,0.5]];portConstraint=eastwest;rounded=0;shadow=0;html=0;" vertex="1" parent="oME-vHjYG33nbW_-eXSs-139">
          <mxGeometry y="130" width="239" height="26" as="geometry" />
        </mxCell>
        <mxCell id="oME-vHjYG33nbW_-eXSs-142" style="line;html=1;strokeWidth=1;align=left;verticalAlign=middle;spacingTop=-1;spacingLeft=3;spacingRight=3;rotatable=0;labelPosition=right;points=[];portConstraint=eastwest;" vertex="1" parent="oME-vHjYG33nbW_-eXSs-139">
          <mxGeometry y="156" width="239" height="8" as="geometry" />
        </mxCell>
        <mxCell id="oME-vHjYG33nbW_-eXSs-146" value="" style="endArrow=none;html=1;edgeStyle=orthogonalEdgeStyle;rounded=0;exitX=1;exitY=0.5;exitDx=0;exitDy=0;entryX=0.5;entryY=0;entryDx=0;entryDy=0;" edge="1" parent="WIyWlLk6GJQsqaUBKTNV-1" source="zkfFHV4jXpPFQw0GAbJ--1" target="oME-vHjYG33nbW_-eXSs-129">
          <mxGeometry relative="1" as="geometry">
            <mxPoint x="330" y="470" as="sourcePoint" />
            <mxPoint x="490" y="470" as="targetPoint" />
          </mxGeometry>
        </mxCell>
        <mxCell id="oME-vHjYG33nbW_-eXSs-150" value="" style="endArrow=none;html=1;edgeStyle=orthogonalEdgeStyle;rounded=0;exitX=0.5;exitY=1;exitDx=0;exitDy=0;entryX=0.5;entryY=0;entryDx=0;entryDy=0;" edge="1" parent="WIyWlLk6GJQsqaUBKTNV-1" source="oME-vHjYG33nbW_-eXSs-129" target="oME-vHjYG33nbW_-eXSs-133">
          <mxGeometry relative="1" as="geometry">
            <mxPoint x="590" y="250" as="sourcePoint" />
            <mxPoint x="750" y="250" as="targetPoint" />
          </mxGeometry>
        </mxCell>
        <mxCell id="oME-vHjYG33nbW_-eXSs-156" value="&lt;span style=&quot;font-size: 11px; text-wrap: nowrap; background-color: rgb(255, 255, 255);&quot;&gt;1...*&lt;/span&gt;" style="text;whiteSpace=wrap;html=1;" vertex="1" parent="WIyWlLk6GJQsqaUBKTNV-1">
          <mxGeometry x="440" y="80" width="60" height="40" as="geometry" />
        </mxCell>
        <mxCell id="oME-vHjYG33nbW_-eXSs-157" value="&lt;span style=&quot;font-size: 11px; text-wrap: nowrap; background-color: rgb(255, 255, 255);&quot;&gt;0...*&lt;/span&gt;" style="text;whiteSpace=wrap;html=1;" vertex="1" parent="WIyWlLk6GJQsqaUBKTNV-1">
          <mxGeometry x="640" y="280" width="60" height="40" as="geometry" />
        </mxCell>
        <mxCell id="oME-vHjYG33nbW_-eXSs-158" value="" style="endArrow=none;html=1;edgeStyle=orthogonalEdgeStyle;rounded=0;entryX=0.5;entryY=0;entryDx=0;entryDy=0;exitX=0.5;exitY=1;exitDx=0;exitDy=0;" edge="1" parent="WIyWlLk6GJQsqaUBKTNV-1" source="zkfFHV4jXpPFQw0GAbJ--0" target="oME-vHjYG33nbW_-eXSs-139">
          <mxGeometry relative="1" as="geometry">
            <mxPoint x="300" y="620" as="sourcePoint" />
            <mxPoint x="520" y="430" as="targetPoint" />
          </mxGeometry>
        </mxCell>
        <mxCell id="oME-vHjYG33nbW_-eXSs-159" value="1..*" style="edgeLabel;resizable=0;html=1;align=left;verticalAlign=bottom;" connectable="0" vertex="1" parent="oME-vHjYG33nbW_-eXSs-158">
          <mxGeometry x="-1" relative="1" as="geometry">
            <mxPoint x="11" y="20" as="offset" />
          </mxGeometry>
        </mxCell>
        <mxCell id="oME-vHjYG33nbW_-eXSs-160" value="1" style="edgeLabel;resizable=0;html=1;align=right;verticalAlign=bottom;" connectable="0" vertex="1" parent="oME-vHjYG33nbW_-eXSs-158">
          <mxGeometry x="1" relative="1" as="geometry">
            <mxPoint x="-9" as="offset" />
          </mxGeometry>
        </mxCell>
        <mxCell id="oME-vHjYG33nbW_-eXSs-165" value="" style="endArrow=none;html=1;edgeStyle=orthogonalEdgeStyle;rounded=0;entryX=0;entryY=0.5;entryDx=0;entryDy=0;exitX=1;exitY=0.5;exitDx=0;exitDy=0;" edge="1" parent="WIyWlLk6GJQsqaUBKTNV-1" source="oME-vHjYG33nbW_-eXSs-114" target="oME-vHjYG33nbW_-eXSs-126">
          <mxGeometry relative="1" as="geometry">
            <mxPoint x="-220" y="179" as="sourcePoint" />
            <mxPoint x="-20.499999999999545" y="100" as="targetPoint" />
          </mxGeometry>
        </mxCell>
        <mxCell id="oME-vHjYG33nbW_-eXSs-166" value="1...*" style="edgeLabel;resizable=0;html=1;align=left;verticalAlign=bottom;" connectable="0" vertex="1" parent="oME-vHjYG33nbW_-eXSs-165">
          <mxGeometry x="-1" relative="1" as="geometry" />
        </mxCell>
        <mxCell id="oME-vHjYG33nbW_-eXSs-167" value="1" style="edgeLabel;resizable=0;html=1;align=right;verticalAlign=bottom;" connectable="0" vertex="1" parent="oME-vHjYG33nbW_-eXSs-165">
          <mxGeometry x="1" relative="1" as="geometry">
            <mxPoint x="-20" as="offset" />
          </mxGeometry>
        </mxCell>
        <mxCell id="oME-vHjYG33nbW_-eXSs-173" value="" style="endArrow=none;html=1;edgeStyle=orthogonalEdgeStyle;rounded=0;exitX=0.456;exitY=0;exitDx=0;exitDy=0;exitPerimeter=0;entryX=0;entryY=0.5;entryDx=0;entryDy=0;" edge="1" parent="WIyWlLk6GJQsqaUBKTNV-1" source="oME-vHjYG33nbW_-eXSs-55" target="oME-vHjYG33nbW_-eXSs-82">
          <mxGeometry relative="1" as="geometry">
            <mxPoint x="-60" y="360" as="sourcePoint" />
            <mxPoint x="100" y="360" as="targetPoint" />
          </mxGeometry>
        </mxCell>
        <mxCell id="oME-vHjYG33nbW_-eXSs-174" value="1" style="edgeLabel;resizable=0;html=1;align=left;verticalAlign=bottom;" connectable="0" vertex="1" parent="oME-vHjYG33nbW_-eXSs-173">
          <mxGeometry x="-1" relative="1" as="geometry">
            <mxPoint x="10" y="-20" as="offset" />
          </mxGeometry>
        </mxCell>
        <mxCell id="oME-vHjYG33nbW_-eXSs-175" value="1" style="edgeLabel;resizable=0;html=1;align=right;verticalAlign=bottom;" connectable="0" vertex="1" parent="oME-vHjYG33nbW_-eXSs-173">
          <mxGeometry x="1" relative="1" as="geometry">
            <mxPoint x="-20" as="offset" />
          </mxGeometry>
        </mxCell>
        <mxCell id="oME-vHjYG33nbW_-eXSs-177" value="" style="endArrow=none;html=1;edgeStyle=orthogonalEdgeStyle;rounded=0;exitX=0.5;exitY=1;exitDx=0;exitDy=0;entryX=0.5;entryY=0;entryDx=0;entryDy=0;" edge="1" parent="WIyWlLk6GJQsqaUBKTNV-1" source="oME-vHjYG33nbW_-eXSs-30" target="oME-vHjYG33nbW_-eXSs-7">
          <mxGeometry relative="1" as="geometry">
            <mxPoint x="-720" y="160" as="sourcePoint" />
            <mxPoint x="-460" y="160" as="targetPoint" />
          </mxGeometry>
        </mxCell>
        <mxCell id="oME-vHjYG33nbW_-eXSs-178" value="0...*" style="edgeLabel;resizable=0;html=1;align=left;verticalAlign=bottom;" connectable="0" vertex="1" parent="oME-vHjYG33nbW_-eXSs-177">
          <mxGeometry x="-1" relative="1" as="geometry">
            <mxPoint x="11" y="20" as="offset" />
          </mxGeometry>
        </mxCell>
        <mxCell id="oME-vHjYG33nbW_-eXSs-179" value="1" style="edgeLabel;resizable=0;html=1;align=right;verticalAlign=bottom;" connectable="0" vertex="1" parent="oME-vHjYG33nbW_-eXSs-177">
          <mxGeometry x="1" relative="1" as="geometry">
            <mxPoint x="-20" as="offset" />
          </mxGeometry>
        </mxCell>
        <mxCell id="oME-vHjYG33nbW_-eXSs-181" value="" style="endArrow=none;html=1;edgeStyle=orthogonalEdgeStyle;rounded=0;exitX=1;exitY=0.5;exitDx=0;exitDy=0;entryX=0;entryY=0.5;entryDx=0;entryDy=0;" edge="1" parent="WIyWlLk6GJQsqaUBKTNV-1" source="oME-vHjYG33nbW_-eXSs-31" target="zkfFHV4jXpPFQw0GAbJ--1">
          <mxGeometry relative="1" as="geometry">
            <mxPoint x="-160" y="-20" as="sourcePoint" />
            <mxPoint y="-20" as="targetPoint" />
            <Array as="points">
              <mxPoint x="-60" y="-201" />
              <mxPoint x="-60" y="75" />
            </Array>
          </mxGeometry>
        </mxCell>
        <mxCell id="oME-vHjYG33nbW_-eXSs-182" value="0...*" style="edgeLabel;resizable=0;html=1;align=left;verticalAlign=bottom;" connectable="0" vertex="1" parent="oME-vHjYG33nbW_-eXSs-181">
          <mxGeometry x="-1" relative="1" as="geometry">
            <mxPoint x="11" as="offset" />
          </mxGeometry>
        </mxCell>
        <mxCell id="oME-vHjYG33nbW_-eXSs-183" value="1" style="edgeLabel;resizable=0;html=1;align=right;verticalAlign=bottom;" connectable="0" vertex="1" parent="oME-vHjYG33nbW_-eXSs-181">
          <mxGeometry x="1" relative="1" as="geometry">
            <mxPoint x="-19" y="-16" as="offset" />
          </mxGeometry>
        </mxCell>
        <mxCell id="oME-vHjYG33nbW_-eXSs-184" value="" style="endArrow=none;html=1;edgeStyle=orthogonalEdgeStyle;rounded=0;entryX=0;entryY=0.5;entryDx=0;entryDy=0;exitX=1.004;exitY=0.05;exitDx=0;exitDy=0;exitPerimeter=0;" edge="1" parent="WIyWlLk6GJQsqaUBKTNV-1" source="oME-vHjYG33nbW_-eXSs-7">
          <mxGeometry relative="1" as="geometry">
            <mxPoint x="-320" y="-160" as="sourcePoint" />
            <mxPoint x="30" y="-279" as="targetPoint" />
            <Array as="points">
              <mxPoint x="-100" y="80" />
              <mxPoint x="-100" y="-253" />
            </Array>
          </mxGeometry>
        </mxCell>
        <mxCell id="oME-vHjYG33nbW_-eXSs-185" value="1" style="edgeLabel;resizable=0;html=1;align=left;verticalAlign=bottom;" connectable="0" vertex="1" parent="oME-vHjYG33nbW_-eXSs-184">
          <mxGeometry x="-1" relative="1" as="geometry">
            <mxPoint x="10" as="offset" />
          </mxGeometry>
        </mxCell>
        <mxCell id="oME-vHjYG33nbW_-eXSs-186" value="0...*" style="edgeLabel;resizable=0;html=1;align=right;verticalAlign=bottom;" connectable="0" vertex="1" parent="oME-vHjYG33nbW_-eXSs-184">
          <mxGeometry x="1" relative="1" as="geometry">
            <mxPoint x="-20" as="offset" />
          </mxGeometry>
        </mxCell>
        <mxCell id="oME-vHjYG33nbW_-eXSs-187" value="" style="endArrow=none;html=1;edgeStyle=orthogonalEdgeStyle;rounded=0;entryX=0.592;entryY=0;entryDx=0;entryDy=0;entryPerimeter=0;" edge="1" parent="WIyWlLk6GJQsqaUBKTNV-1" target="zkfFHV4jXpPFQw0GAbJ--0">
          <mxGeometry relative="1" as="geometry">
            <mxPoint x="270" y="-294" as="sourcePoint" />
            <mxPoint x="330" y="30" as="targetPoint" />
            <Array as="points">
              <mxPoint x="332" y="-294" />
            </Array>
          </mxGeometry>
        </mxCell>
        <mxCell id="oME-vHjYG33nbW_-eXSs-188" value="0...*" style="edgeLabel;resizable=0;html=1;align=left;verticalAlign=bottom;" connectable="0" vertex="1" parent="oME-vHjYG33nbW_-eXSs-187">
          <mxGeometry x="-1" relative="1" as="geometry" />
        </mxCell>
        <mxCell id="oME-vHjYG33nbW_-eXSs-189" value="1" style="edgeLabel;resizable=0;html=1;align=right;verticalAlign=bottom;" connectable="0" vertex="1" parent="oME-vHjYG33nbW_-eXSs-187">
          <mxGeometry x="1" relative="1" as="geometry">
            <mxPoint x="-20" as="offset" />
          </mxGeometry>
        </mxCell>
        <mxCell id="oME-vHjYG33nbW_-eXSs-196" value="Paricipate" style="swimlane;fontStyle=1;align=center;verticalAlign=top;childLayout=stackLayout;horizontal=1;startSize=26;horizontalStack=0;resizeParent=1;resizeParentMax=0;resizeLast=0;collapsible=1;marginBottom=0;whiteSpace=wrap;html=1;" vertex="1" parent="WIyWlLk6GJQsqaUBKTNV-1">
          <mxGeometry x="-70" y="640" width="160" height="60" as="geometry" />
        </mxCell>
        <mxCell id="oME-vHjYG33nbW_-eXSs-200" style="text;strokeColor=none;fillColor=none;align=left;verticalAlign=top;spacingLeft=4;spacingRight=4;overflow=hidden;rotatable=0;points=[[0,0.5],[1,0.5]];portConstraint=eastwest;whiteSpace=wrap;html=1;" vertex="1" parent="oME-vHjYG33nbW_-eXSs-196">
          <mxGeometry y="26" width="160" height="26" as="geometry" />
        </mxCell>
        <mxCell id="oME-vHjYG33nbW_-eXSs-198" value="" style="line;strokeWidth=1;fillColor=none;align=left;verticalAlign=middle;spacingTop=-1;spacingLeft=3;spacingRight=3;rotatable=0;labelPosition=right;points=[];portConstraint=eastwest;strokeColor=inherit;" vertex="1" parent="oME-vHjYG33nbW_-eXSs-196">
          <mxGeometry y="52" width="160" height="8" as="geometry" />
        </mxCell>
        <mxCell id="oME-vHjYG33nbW_-eXSs-202" value="" style="endArrow=none;html=1;edgeStyle=orthogonalEdgeStyle;rounded=0;" edge="1" parent="WIyWlLk6GJQsqaUBKTNV-1">
          <mxGeometry relative="1" as="geometry">
            <mxPoint x="-330" y="711" as="sourcePoint" />
            <mxPoint y="700" as="targetPoint" />
          </mxGeometry>
        </mxCell>
        <mxCell id="oME-vHjYG33nbW_-eXSs-203" value="0...*" style="edgeLabel;resizable=0;html=1;align=left;verticalAlign=bottom;" connectable="0" vertex="1" parent="oME-vHjYG33nbW_-eXSs-202">
          <mxGeometry x="-1" relative="1" as="geometry">
            <mxPoint x="12" y="-10" as="offset" />
          </mxGeometry>
        </mxCell>
        <mxCell id="oME-vHjYG33nbW_-eXSs-205" value="" style="endArrow=none;html=1;edgeStyle=orthogonalEdgeStyle;rounded=0;exitX=0.5;exitY=0;exitDx=0;exitDy=0;entryX=0;entryY=0.5;entryDx=0;entryDy=0;" edge="1" parent="WIyWlLk6GJQsqaUBKTNV-1" source="oME-vHjYG33nbW_-eXSs-196" target="oME-vHjYG33nbW_-eXSs-3">
          <mxGeometry relative="1" as="geometry">
            <mxPoint x="-40" y="619" as="sourcePoint" />
            <mxPoint x="122" y="549" as="targetPoint" />
          </mxGeometry>
        </mxCell>
        <mxCell id="oME-vHjYG33nbW_-eXSs-206" value="1...*" style="edgeLabel;resizable=0;html=1;align=left;verticalAlign=bottom;" connectable="0" vertex="1" parent="oME-vHjYG33nbW_-eXSs-205">
          <mxGeometry x="-1" relative="1" as="geometry">
            <mxPoint x="150" y="-93" as="offset" />
          </mxGeometry>
        </mxCell>
        <mxCell id="oME-vHjYG33nbW_-eXSs-213" value="" style="endArrow=none;html=1;edgeStyle=orthogonalEdgeStyle;rounded=0;exitX=1;exitY=0.5;exitDx=0;exitDy=0;" edge="1" parent="WIyWlLk6GJQsqaUBKTNV-1" source="oME-vHjYG33nbW_-eXSs-90" target="oME-vHjYG33nbW_-eXSs-54">
          <mxGeometry relative="1" as="geometry">
            <mxPoint x="-260" y="780" as="sourcePoint" />
            <mxPoint x="-100" y="780" as="targetPoint" />
          </mxGeometry>
        </mxCell>
        <mxCell id="oME-vHjYG33nbW_-eXSs-214" value="0...*" style="edgeLabel;resizable=0;html=1;align=left;verticalAlign=bottom;" connectable="0" vertex="1" parent="oME-vHjYG33nbW_-eXSs-213">
          <mxGeometry x="-1" relative="1" as="geometry">
            <mxPoint x="10" as="offset" />
          </mxGeometry>
        </mxCell>
        <mxCell id="oME-vHjYG33nbW_-eXSs-215" value="1" style="edgeLabel;resizable=0;html=1;align=right;verticalAlign=bottom;" connectable="0" vertex="1" parent="oME-vHjYG33nbW_-eXSs-213">
          <mxGeometry x="1" relative="1" as="geometry">
            <mxPoint x="-6" y="-6" as="offset" />
          </mxGeometry>
        </mxCell>
        <mxCell id="oME-vHjYG33nbW_-eXSs-216" value="" style="endArrow=none;html=1;edgeStyle=orthogonalEdgeStyle;rounded=0;exitX=0.64;exitY=-0.003;exitDx=0;exitDy=0;exitPerimeter=0;" edge="1" parent="WIyWlLk6GJQsqaUBKTNV-1" source="oME-vHjYG33nbW_-eXSs-47">
          <mxGeometry relative="1" as="geometry">
            <mxPoint x="-80" y="720" as="sourcePoint" />
            <mxPoint x="210" y="580" as="targetPoint" />
            <Array as="points">
              <mxPoint x="44" y="830" />
              <mxPoint x="210" y="830" />
            </Array>
          </mxGeometry>
        </mxCell>
        <mxCell id="oME-vHjYG33nbW_-eXSs-217" value="1" style="edgeLabel;resizable=0;html=1;align=left;verticalAlign=bottom;" connectable="0" vertex="1" parent="oME-vHjYG33nbW_-eXSs-216">
          <mxGeometry x="-1" relative="1" as="geometry">
            <mxPoint x="7" y="-9" as="offset" />
          </mxGeometry>
        </mxCell>
        <mxCell id="oME-vHjYG33nbW_-eXSs-218" value="0...*" style="edgeLabel;resizable=0;html=1;align=right;verticalAlign=bottom;" connectable="0" vertex="1" parent="oME-vHjYG33nbW_-eXSs-216">
          <mxGeometry x="1" relative="1" as="geometry">
            <mxPoint x="30" y="30" as="offset" />
          </mxGeometry>
        </mxCell>
        <mxCell id="oME-vHjYG33nbW_-eXSs-220" value="" style="endArrow=none;html=1;edgeStyle=orthogonalEdgeStyle;rounded=0;exitX=0;exitY=0.5;exitDx=0;exitDy=0;entryX=1;entryY=0.5;entryDx=0;entryDy=0;" edge="1" parent="WIyWlLk6GJQsqaUBKTNV-1" source="oME-vHjYG33nbW_-eXSs-2" target="oME-vHjYG33nbW_-eXSs-117">
          <mxGeometry relative="1" as="geometry">
            <mxPoint x="330" y="-80" as="sourcePoint" />
            <mxPoint x="616" y="-110" as="targetPoint" />
          </mxGeometry>
        </mxCell>
        <mxCell id="oME-vHjYG33nbW_-eXSs-221" value="1" style="edgeLabel;resizable=0;html=1;align=left;verticalAlign=bottom;" connectable="0" vertex="1" parent="oME-vHjYG33nbW_-eXSs-220">
          <mxGeometry x="-1" relative="1" as="geometry">
            <mxPoint x="-20" as="offset" />
          </mxGeometry>
        </mxCell>
        <mxCell id="oME-vHjYG33nbW_-eXSs-222" value="0...*" style="edgeLabel;resizable=0;html=1;align=right;verticalAlign=bottom;" connectable="0" vertex="1" parent="oME-vHjYG33nbW_-eXSs-220">
          <mxGeometry x="1" relative="1" as="geometry">
            <mxPoint x="34" y="28" as="offset" />
          </mxGeometry>
        </mxCell>
        <mxCell id="oME-vHjYG33nbW_-eXSs-237" value="" style="endArrow=none;html=1;edgeStyle=orthogonalEdgeStyle;rounded=0;exitX=1;exitY=0.5;exitDx=0;exitDy=0;entryX=0;entryY=0.5;entryDx=0;entryDy=0;" edge="1" parent="WIyWlLk6GJQsqaUBKTNV-1" source="oME-vHjYG33nbW_-eXSs-19">
          <mxGeometry relative="1" as="geometry">
            <mxPoint x="-490" y="380" as="sourcePoint" />
            <mxPoint x="-360" y="329" as="targetPoint" />
          </mxGeometry>
        </mxCell>
        <mxCell id="oME-vHjYG33nbW_-eXSs-238" value="1" style="edgeLabel;resizable=0;html=1;align=left;verticalAlign=bottom;" connectable="0" vertex="1" parent="oME-vHjYG33nbW_-eXSs-237">
          <mxGeometry x="-1" relative="1" as="geometry" />
        </mxCell>
        <mxCell id="oME-vHjYG33nbW_-eXSs-239" value="0...*" style="edgeLabel;resizable=0;html=1;align=right;verticalAlign=bottom;" connectable="0" vertex="1" parent="oME-vHjYG33nbW_-eXSs-237">
          <mxGeometry x="1" relative="1" as="geometry">
            <mxPoint x="-10" as="offset" />
          </mxGeometry>
        </mxCell>
        <mxCell id="oME-vHjYG33nbW_-eXSs-240" value="" style="endArrow=none;html=1;edgeStyle=orthogonalEdgeStyle;rounded=0;exitX=0.5;exitY=0;exitDx=0;exitDy=0;entryX=0.5;entryY=1;entryDx=0;entryDy=0;" edge="1" parent="WIyWlLk6GJQsqaUBKTNV-1" source="oME-vHjYG33nbW_-eXSs-37" target="oME-vHjYG33nbW_-eXSs-62">
          <mxGeometry relative="1" as="geometry">
            <mxPoint x="-430" y="570" as="sourcePoint" />
            <mxPoint x="-270" y="570" as="targetPoint" />
          </mxGeometry>
        </mxCell>
        <mxCell id="oME-vHjYG33nbW_-eXSs-241" value="1" style="edgeLabel;resizable=0;html=1;align=left;verticalAlign=bottom;" connectable="0" vertex="1" parent="oME-vHjYG33nbW_-eXSs-240">
          <mxGeometry x="-1" relative="1" as="geometry" />
        </mxCell>
        <mxCell id="oME-vHjYG33nbW_-eXSs-242" value="0...*" style="edgeLabel;resizable=0;html=1;align=right;verticalAlign=bottom;" connectable="0" vertex="1" parent="oME-vHjYG33nbW_-eXSs-240">
          <mxGeometry x="1" relative="1" as="geometry">
            <mxPoint x="-10" y="28" as="offset" />
          </mxGeometry>
        </mxCell>
        <mxCell id="oME-vHjYG33nbW_-eXSs-243" value="Attachment" style="swimlane;fontStyle=0;align=center;verticalAlign=top;childLayout=stackLayout;horizontal=1;startSize=26;horizontalStack=0;resizeParent=1;resizeLast=0;collapsible=1;marginBottom=0;rounded=0;shadow=0;strokeWidth=1;" vertex="1" parent="WIyWlLk6GJQsqaUBKTNV-1">
          <mxGeometry x="-880" y="450" width="239" height="160" as="geometry">
            <mxRectangle x="230" y="140" width="160" height="26" as="alternateBounds" />
          </mxGeometry>
        </mxCell>
        <mxCell id="oME-vHjYG33nbW_-eXSs-244" value="Id : int" style="text;align=left;verticalAlign=top;spacingLeft=4;spacingRight=4;overflow=hidden;rotatable=0;points=[[0,0.5],[1,0.5]];portConstraint=eastwest;" vertex="1" parent="oME-vHjYG33nbW_-eXSs-243">
          <mxGeometry y="26" width="239" height="26" as="geometry" />
        </mxCell>
        <mxCell id="oME-vHjYG33nbW_-eXSs-245" value="type: string // image, video, file" style="text;align=left;verticalAlign=top;spacingLeft=4;spacingRight=4;overflow=hidden;rotatable=0;points=[[0,0.5],[1,0.5]];portConstraint=eastwest;rounded=0;shadow=0;html=0;" vertex="1" parent="oME-vHjYG33nbW_-eXSs-243">
          <mxGeometry y="52" width="239" height="26" as="geometry" />
        </mxCell>
        <mxCell id="oME-vHjYG33nbW_-eXSs-246" value="url: string" style="text;align=left;verticalAlign=top;spacingLeft=4;spacingRight=4;overflow=hidden;rotatable=0;points=[[0,0.5],[1,0.5]];portConstraint=eastwest;rounded=0;shadow=0;html=0;" vertex="1" parent="oME-vHjYG33nbW_-eXSs-243">
          <mxGeometry y="78" width="239" height="26" as="geometry" />
        </mxCell>
        <mxCell id="oME-vHjYG33nbW_-eXSs-247" value="metadata: Dictionary // resolution, size" style="text;align=left;verticalAlign=top;spacingLeft=4;spacingRight=4;overflow=hidden;rotatable=0;points=[[0,0.5],[1,0.5]];portConstraint=eastwest;rounded=0;shadow=0;html=0;" vertex="1" parent="oME-vHjYG33nbW_-eXSs-243">
          <mxGeometry y="104" width="239" height="26" as="geometry" />
        </mxCell>
        <mxCell id="oME-vHjYG33nbW_-eXSs-249" value="" style="line;html=1;strokeWidth=1;align=left;verticalAlign=middle;spacingTop=-1;spacingLeft=3;spacingRight=3;rotatable=0;labelPosition=right;points=[];portConstraint=eastwest;" vertex="1" parent="oME-vHjYG33nbW_-eXSs-243">
          <mxGeometry y="130" width="239" height="8" as="geometry" />
        </mxCell>
        <mxCell id="oME-vHjYG33nbW_-eXSs-255" value="" style="endArrow=none;html=1;edgeStyle=orthogonalEdgeStyle;rounded=0;exitX=0.75;exitY=0;exitDx=0;exitDy=0;entryX=0.25;entryY=1;entryDx=0;entryDy=0;" edge="1" parent="WIyWlLk6GJQsqaUBKTNV-1" source="oME-vHjYG33nbW_-eXSs-243" target="oME-vHjYG33nbW_-eXSs-7">
          <mxGeometry relative="1" as="geometry">
            <mxPoint x="-740" y="-60" as="sourcePoint" />
            <mxPoint x="-650" y="30" as="targetPoint" />
            <Array as="points">
              <mxPoint x="-701" y="440" />
              <mxPoint x="-650" y="440" />
            </Array>
          </mxGeometry>
        </mxCell>
        <mxCell id="oME-vHjYG33nbW_-eXSs-256" value="0...*" style="edgeLabel;resizable=0;html=1;align=left;verticalAlign=bottom;" connectable="0" vertex="1" parent="oME-vHjYG33nbW_-eXSs-255">
          <mxGeometry x="-1" relative="1" as="geometry">
            <mxPoint x="-9" y="-10" as="offset" />
          </mxGeometry>
        </mxCell>
        <mxCell id="oME-vHjYG33nbW_-eXSs-257" value="1" style="edgeLabel;resizable=0;html=1;align=right;verticalAlign=bottom;" connectable="0" vertex="1" parent="oME-vHjYG33nbW_-eXSs-255">
          <mxGeometry x="1" relative="1" as="geometry">
            <mxPoint x="20" y="20" as="offset" />
          </mxGeometry>
        </mxCell>
        <mxCell id="oME-vHjYG33nbW_-eXSs-258" value="Friendship" style="swimlane;fontStyle=0;align=center;verticalAlign=top;childLayout=stackLayout;horizontal=1;startSize=26;horizontalStack=0;resizeParent=1;resizeLast=0;collapsible=1;marginBottom=0;rounded=0;shadow=0;strokeWidth=1;" vertex="1" parent="WIyWlLk6GJQsqaUBKTNV-1">
          <mxGeometry x="401" y="-190" width="239" height="164" as="geometry">
            <mxRectangle x="230" y="140" width="160" height="26" as="alternateBounds" />
          </mxGeometry>
        </mxCell>
        <mxCell id="oME-vHjYG33nbW_-eXSs-259" value="Id : int" style="text;align=left;verticalAlign=top;spacingLeft=4;spacingRight=4;overflow=hidden;rotatable=0;points=[[0,0.5],[1,0.5]];portConstraint=eastwest;" vertex="1" parent="oME-vHjYG33nbW_-eXSs-258">
          <mxGeometry y="26" width="239" height="26" as="geometry" />
        </mxCell>
        <mxCell id="oME-vHjYG33nbW_-eXSs-260" value="user1: User" style="text;align=left;verticalAlign=top;spacingLeft=4;spacingRight=4;overflow=hidden;rotatable=0;points=[[0,0.5],[1,0.5]];portConstraint=eastwest;rounded=0;shadow=0;html=0;" vertex="1" parent="oME-vHjYG33nbW_-eXSs-258">
          <mxGeometry y="52" width="239" height="26" as="geometry" />
        </mxCell>
        <mxCell id="oME-vHjYG33nbW_-eXSs-261" value="user2: User" style="text;align=left;verticalAlign=top;spacingLeft=4;spacingRight=4;overflow=hidden;rotatable=0;points=[[0,0.5],[1,0.5]];portConstraint=eastwest;rounded=0;shadow=0;html=0;" vertex="1" parent="oME-vHjYG33nbW_-eXSs-258">
          <mxGeometry y="78" width="239" height="26" as="geometry" />
        </mxCell>
        <mxCell id="oME-vHjYG33nbW_-eXSs-262" value="status: FriendShipStatus" style="text;align=left;verticalAlign=top;spacingLeft=4;spacingRight=4;overflow=hidden;rotatable=0;points=[[0,0.5],[1,0.5]];portConstraint=eastwest;rounded=0;shadow=0;html=0;" vertex="1" parent="oME-vHjYG33nbW_-eXSs-258">
          <mxGeometry y="104" width="239" height="26" as="geometry" />
        </mxCell>
        <mxCell id="oME-vHjYG33nbW_-eXSs-264" value="establishedAt: DateTime" style="text;align=left;verticalAlign=top;spacingLeft=4;spacingRight=4;overflow=hidden;rotatable=0;points=[[0,0.5],[1,0.5]];portConstraint=eastwest;rounded=0;shadow=0;html=0;" vertex="1" parent="oME-vHjYG33nbW_-eXSs-258">
          <mxGeometry y="130" width="239" height="26" as="geometry" />
        </mxCell>
        <mxCell id="oME-vHjYG33nbW_-eXSs-263" value="" style="line;html=1;strokeWidth=1;align=left;verticalAlign=middle;spacingTop=-1;spacingLeft=3;spacingRight=3;rotatable=0;labelPosition=right;points=[];portConstraint=eastwest;" vertex="1" parent="oME-vHjYG33nbW_-eXSs-258">
          <mxGeometry y="156" width="239" height="8" as="geometry" />
        </mxCell>
        <mxCell id="oME-vHjYG33nbW_-eXSs-265" value="" style="endArrow=none;html=1;edgeStyle=orthogonalEdgeStyle;rounded=0;exitX=0.712;exitY=-0.001;exitDx=0;exitDy=0;exitPerimeter=0;entryX=0.75;entryY=1;entryDx=0;entryDy=0;" edge="1" parent="WIyWlLk6GJQsqaUBKTNV-1" source="zkfFHV4jXpPFQw0GAbJ--0" target="oME-vHjYG33nbW_-eXSs-258">
          <mxGeometry relative="1" as="geometry">
            <mxPoint x="350" y="-10" as="sourcePoint" />
            <mxPoint x="510" y="-10" as="targetPoint" />
          </mxGeometry>
        </mxCell>
        <mxCell id="oME-vHjYG33nbW_-eXSs-266" value="2" style="edgeLabel;resizable=0;html=1;align=left;verticalAlign=bottom;" connectable="0" vertex="1" parent="oME-vHjYG33nbW_-eXSs-265">
          <mxGeometry x="-1" relative="1" as="geometry">
            <mxPoint y="-5" as="offset" />
          </mxGeometry>
        </mxCell>
        <mxCell id="oME-vHjYG33nbW_-eXSs-267" value="0...*" style="edgeLabel;resizable=0;html=1;align=right;verticalAlign=bottom;" connectable="0" vertex="1" parent="oME-vHjYG33nbW_-eXSs-265">
          <mxGeometry x="1" relative="1" as="geometry">
            <mxPoint x="40" y="26" as="offset" />
          </mxGeometry>
        </mxCell>
        <mxCell id="oME-vHjYG33nbW_-eXSs-271" value="&lt;&lt;enumeration&gt;&gt; MessageStatus" style="swimlane;fontStyle=0;align=center;verticalAlign=top;childLayout=stackLayout;horizontal=1;startSize=26;horizontalStack=0;resizeParent=1;resizeLast=0;collapsible=1;marginBottom=0;rounded=0;shadow=0;strokeWidth=1;" vertex="1" parent="WIyWlLk6GJQsqaUBKTNV-1">
          <mxGeometry x="179" y="940" width="239" height="110" as="geometry">
            <mxRectangle x="230" y="140" width="160" height="26" as="alternateBounds" />
          </mxGeometry>
        </mxCell>
        <mxCell id="oME-vHjYG33nbW_-eXSs-272" value="SENT" style="text;align=left;verticalAlign=top;spacingLeft=4;spacingRight=4;overflow=hidden;rotatable=0;points=[[0,0.5],[1,0.5]];portConstraint=eastwest;" vertex="1" parent="oME-vHjYG33nbW_-eXSs-271">
          <mxGeometry y="26" width="239" height="26" as="geometry" />
        </mxCell>
        <mxCell id="oME-vHjYG33nbW_-eXSs-273" value="DELIVERED" style="text;align=left;verticalAlign=top;spacingLeft=4;spacingRight=4;overflow=hidden;rotatable=0;points=[[0,0.5],[1,0.5]];portConstraint=eastwest;rounded=0;shadow=0;html=0;" vertex="1" parent="oME-vHjYG33nbW_-eXSs-271">
          <mxGeometry y="52" width="239" height="26" as="geometry" />
        </mxCell>
        <mxCell id="oME-vHjYG33nbW_-eXSs-274" value="READ" style="text;align=left;verticalAlign=top;spacingLeft=4;spacingRight=4;overflow=hidden;rotatable=0;points=[[0,0.5],[1,0.5]];portConstraint=eastwest;" vertex="1" parent="oME-vHjYG33nbW_-eXSs-271">
          <mxGeometry y="78" width="239" height="26" as="geometry" />
        </mxCell>
        <mxCell id="oME-vHjYG33nbW_-eXSs-281" value="" style="endArrow=none;html=1;edgeStyle=orthogonalEdgeStyle;rounded=0;exitX=0.25;exitY=1;exitDx=0;exitDy=0;entryX=0;entryY=0.5;entryDx=0;entryDy=0;" edge="1" parent="WIyWlLk6GJQsqaUBKTNV-1" source="oME-vHjYG33nbW_-eXSs-243" target="oME-vHjYG33nbW_-eXSs-53">
          <mxGeometry relative="1" as="geometry">
            <mxPoint x="-450" y="730" as="sourcePoint" />
            <mxPoint x="-290" y="730" as="targetPoint" />
          </mxGeometry>
        </mxCell>
        <mxCell id="oME-vHjYG33nbW_-eXSs-282" value="0...*" style="edgeLabel;resizable=0;html=1;align=left;verticalAlign=bottom;" connectable="0" vertex="1" parent="oME-vHjYG33nbW_-eXSs-281">
          <mxGeometry x="-1" relative="1" as="geometry">
            <mxPoint x="-40" y="30" as="offset" />
          </mxGeometry>
        </mxCell>
        <mxCell id="oME-vHjYG33nbW_-eXSs-283" value="1" style="edgeLabel;resizable=0;html=1;align=right;verticalAlign=bottom;" connectable="0" vertex="1" parent="oME-vHjYG33nbW_-eXSs-281">
          <mxGeometry x="1" relative="1" as="geometry">
            <mxPoint x="-10" as="offset" />
          </mxGeometry>
        </mxCell>
        <mxCell id="oME-vHjYG33nbW_-eXSs-285" value="&lt;&lt;enumeration&gt;&gt; FriendShipStatus" style="swimlane;fontStyle=0;align=center;verticalAlign=top;childLayout=stackLayout;horizontal=1;startSize=26;horizontalStack=0;resizeParent=1;resizeLast=0;collapsible=1;marginBottom=0;rounded=0;shadow=0;strokeWidth=1;" vertex="1" parent="WIyWlLk6GJQsqaUBKTNV-1">
          <mxGeometry x="670" y="-190" width="239" height="110" as="geometry">
            <mxRectangle x="230" y="140" width="160" height="26" as="alternateBounds" />
          </mxGeometry>
        </mxCell>
        <mxCell id="oME-vHjYG33nbW_-eXSs-286" value="PENDING" style="text;align=left;verticalAlign=top;spacingLeft=4;spacingRight=4;overflow=hidden;rotatable=0;points=[[0,0.5],[1,0.5]];portConstraint=eastwest;" vertex="1" parent="oME-vHjYG33nbW_-eXSs-285">
          <mxGeometry y="26" width="239" height="26" as="geometry" />
        </mxCell>
        <mxCell id="oME-vHjYG33nbW_-eXSs-287" value="ACCEPTED" style="text;align=left;verticalAlign=top;spacingLeft=4;spacingRight=4;overflow=hidden;rotatable=0;points=[[0,0.5],[1,0.5]];portConstraint=eastwest;rounded=0;shadow=0;html=0;" vertex="1" parent="oME-vHjYG33nbW_-eXSs-285">
          <mxGeometry y="52" width="239" height="26" as="geometry" />
        </mxCell>
        <mxCell id="oME-vHjYG33nbW_-eXSs-288" value="CANCELED" style="text;align=left;verticalAlign=top;spacingLeft=4;spacingRight=4;overflow=hidden;rotatable=0;points=[[0,0.5],[1,0.5]];portConstraint=eastwest;" vertex="1" parent="oME-vHjYG33nbW_-eXSs-285">
          <mxGeometry y="78" width="239" height="26" as="geometry" />
        </mxCell>
        <mxCell id="oME-vHjYG33nbW_-eXSs-294" value="&lt;&lt;enumeration&gt;&gt; NotificationType" style="swimlane;fontStyle=0;align=center;verticalAlign=top;childLayout=stackLayout;horizontal=1;startSize=26;horizontalStack=0;resizeParent=1;resizeLast=0;collapsible=1;marginBottom=0;rounded=0;shadow=0;strokeWidth=1;" vertex="1" parent="WIyWlLk6GJQsqaUBKTNV-1">
          <mxGeometry x="-620" y="390" width="239" height="130" as="geometry">
            <mxRectangle x="230" y="140" width="160" height="26" as="alternateBounds" />
          </mxGeometry>
        </mxCell>
        <mxCell id="oME-vHjYG33nbW_-eXSs-295" value="FOLLOW" style="text;align=left;verticalAlign=top;spacingLeft=4;spacingRight=4;overflow=hidden;rotatable=0;points=[[0,0.5],[1,0.5]];portConstraint=eastwest;" vertex="1" parent="oME-vHjYG33nbW_-eXSs-294">
          <mxGeometry y="26" width="239" height="26" as="geometry" />
        </mxCell>
        <mxCell id="oME-vHjYG33nbW_-eXSs-296" value="MESSAGE" style="text;align=left;verticalAlign=top;spacingLeft=4;spacingRight=4;overflow=hidden;rotatable=0;points=[[0,0.5],[1,0.5]];portConstraint=eastwest;rounded=0;shadow=0;html=0;" vertex="1" parent="oME-vHjYG33nbW_-eXSs-294">
          <mxGeometry y="52" width="239" height="26" as="geometry" />
        </mxCell>
        <mxCell id="oME-vHjYG33nbW_-eXSs-297" value="LIKE" style="text;align=left;verticalAlign=top;spacingLeft=4;spacingRight=4;overflow=hidden;rotatable=0;points=[[0,0.5],[1,0.5]];portConstraint=eastwest;" vertex="1" parent="oME-vHjYG33nbW_-eXSs-294">
          <mxGeometry y="78" width="239" height="26" as="geometry" />
        </mxCell>
        <mxCell id="oME-vHjYG33nbW_-eXSs-298" value="COMMENT ..." style="text;align=left;verticalAlign=top;spacingLeft=4;spacingRight=4;overflow=hidden;rotatable=0;points=[[0,0.5],[1,0.5]];portConstraint=eastwest;" vertex="1" parent="oME-vHjYG33nbW_-eXSs-294">
          <mxGeometry y="104" width="239" height="26" as="geometry" />
        </mxCell>
      </root>
    </mxGraphModel>
  </diagram>
</mxfile>
